<svg width="20" height="20" viewBox="0 0 20 20" fill="none" xmlns="http://www.w3.org/2000/svg">
<g clip-path="url(#clip0_108_2)">
<path d="M7.40558 17.7778C8.09593 17.7778 8.65558 17.2181 8.65558 16.5278C8.65558 15.8374 8.09593 15.2778 7.40558 15.2778C6.71522 15.2778 6.15558 15.8374 6.15558 16.5278C6.15558 17.2181 6.71522 17.7778 7.40558 17.7778Z" fill="white"/>
<path d="M15 17.7778C15.6904 17.7778 16.25 17.2181 16.25 16.5278C16.25 15.8374 15.6904 15.2778 15 15.2778C14.3096 15.2778 13.75 15.8374 13.75 16.5278C13.75 17.2181 14.3096 17.7778 15 17.7778Z" fill="white"/>
<path d="M18.3778 2.98333C18.3261 2.9196 18.2609 2.86811 18.1869 2.83257C18.113 2.79703 18.032 2.77832 17.95 2.77777H6.38331L6.74442 3.88889H17.2222L15.7389 10.5556H7.40554L4.86665 2.51666C4.83918 2.43136 4.7915 2.35397 4.72765 2.29109C4.6638 2.22821 4.58569 2.18171 4.49998 2.15555L2.2222 1.45555C2.15216 1.43403 2.07857 1.42651 2.00563 1.43343C1.93269 1.44035 1.86182 1.46157 1.79708 1.49587C1.66632 1.56516 1.56845 1.68355 1.52498 1.825C1.48151 1.96644 1.49602 2.11937 1.5653 2.25012C1.63459 2.38088 1.75298 2.47875 1.89442 2.52222L3.88887 3.13333L6.43887 11.1889L5.52776 11.9333L5.45554 12.0056C5.23017 12.2653 5.10243 12.5954 5.09431 12.9392C5.0862 13.283 5.19822 13.6188 5.41109 13.8889C5.56251 14.073 5.75493 14.2192 5.97295 14.3156C6.19096 14.4121 6.42853 14.4562 6.66665 14.4444H15.9389C16.0862 14.4444 16.2275 14.3859 16.3317 14.2817C16.4359 14.1775 16.4944 14.0362 16.4944 13.8889C16.4944 13.7415 16.4359 13.6002 16.3317 13.496C16.2275 13.3919 16.0862 13.3333 15.9389 13.3333H6.57776C6.51378 13.3311 6.45145 13.3125 6.39679 13.2792C6.34213 13.2459 6.29698 13.199 6.2657 13.1432C6.23442 13.0873 6.21808 13.0244 6.21824 12.9604C6.21841 12.8963 6.23508 12.8335 6.26665 12.7778L7.60554 11.6667H16.1833C16.3117 11.6698 16.4373 11.6283 16.5386 11.5493C16.6399 11.4703 16.7106 11.3587 16.7389 11.2333L18.5 3.45555C18.5169 3.37273 18.5146 3.28714 18.4935 3.20531C18.4723 3.12348 18.4327 3.04756 18.3778 2.98333Z" fill="white"/>
</g>
<defs>
<clipPath id="clip0_108_2">
<rect width="20" height="20" fill="white"/>
</clipPath>
</defs>
</svg>
