<svg width="18" height="18" viewBox="0 0 18 18" fill="none" xmlns="http://www.w3.org/2000/svg">
<g clip-path="url(#clip0_116_122)">
<path d="M16 3H2C1.73478 3 1.48043 3.10536 1.29289 3.29289C1.10536 3.48043 1 3.73478 1 4V14C1 14.2652 1.10536 14.5196 1.29289 14.7071C1.48043 14.8946 1.73478 15 2 15H16C16.2652 15 16.5196 14.8946 16.7071 14.7071C16.8946 14.5196 17 14.2652 17 14V4C17 3.73478 16.8946 3.48043 16.7071 3.29289C16.5196 3.10536 16.2652 3 16 3ZM15.23 14H2.83L6.33 10.38L5.61 9.685L2 13.42V4.76L8.215 10.945C8.40236 11.1313 8.65581 11.2358 8.92 11.2358C9.18419 11.2358 9.43764 11.1313 9.625 10.945L16 4.605V13.355L12.32 9.675L11.615 10.38L15.23 14ZM2.655 4H15.19L8.92 10.235L2.655 4Z" fill="#9C6955"/>
</g>
<defs>
<clipPath id="clip0_116_122">
<rect width="18" height="18" fill="white"/>
</clipPath>
</defs>
</svg>
