<svg width="115" height="112" viewBox="0 0 115 112" fill="none" xmlns="http://www.w3.org/2000/svg">
<g clip-path="url(#clip0_227_442)">
<path d="M82.6667 26.3333C82.4667 26.1333 78.2 21.4667 73.2 21.4667C70.9333 21.4667 68.9333 22.4 67.1333 24.2667L65.3333 26.2667C63.5333 26.4 62 27.0667 60.8 28.2667C57.9333 31.3333 58.2 36.6667 58.2 36.8667V44.2667H55.9333V22.8667L58.6667 20.4C61.0667 18.1333 62.3333 15.4667 62.2667 12.5333C62.2 6.06667 56.1333 0.466667 55.8666 0.266667C55.6666 0.0666667 55.4 0 55.2 0H54.6667C54.4 0 54.1333 0.0666667 54 0.266667C53.7333 0.533333 47.6667 6.06667 47.6 12.5333C47.6 15.4667 48.8 18.1333 51.2667 20.4L54 22.8667V44.1333H51.7333V36.8C51.7333 36.6 52.0667 31.2 49.1333 28.1333C47.9333 26.8667 46.4 26.2 44.6 26.1333L42.8 24.1333C41.0667 22.2667 39 21.3333 36.8 21.3333C31.8 21.3333 27.5333 26 27.3333 26.2C27.1333 26.4 27.0667 26.6667 27.0667 26.8667V27.2667C27.0667 27.5333 27.1333 27.8 27.3333 27.9333C27.5333 28.3333 31.8666 33 36.8666 33C39.1333 33 41.1333 32.0667 42.9333 30.2L44.6667 28.2667C45.9333 28.3333 46.9333 28.8 47.7333 29.6C50 32 49.7333 36.6667 49.7333 36.8V44.2H33.3333C32.7333 44.2 32.2667 44.6667 32.2667 45.2667C32.2667 57.8 42.5333 68 55.0667 68C67.6 68 77.8667 57.8 77.8667 45.2C77.8667 44.6 77.4 44.1333 76.8 44.1333H60.4V36.6667C60.4 36.6 60.1333 31.9333 62.4 29.5333C63.2 28.6667 64.2 28.2667 65.4667 28.2L67.2 30.1333C68.9333 32 71 32.9333 73.2 32.9333C78.2 32.9333 82.4667 28.2667 82.6667 28.0667C82.8667 27.8667 82.9333 27.6 82.9333 27.4V27C82.9333 26.7333 82.8667 26.4667 82.6667 26.3333ZM36.2667 28.2667H41.9333L41.4667 28.8C40.1333 30.2667 38.6667 30.9333 36.9333 30.9333C33.6667 30.9333 30.6 28.3333 29.4667 27.2C30.5333 26.0667 33.6 23.4667 36.8666 23.4667C38.5333 23.4667 40 24.2 41.4 25.6L41.9333 26.1333H36.2667C35.6667 26.1333 35.2 26.6 35.2 27.2C35.2 27.8 35.6667 28.2667 36.2667 28.2667ZM52.7333 18.9333C50.7333 17.0667 49.7333 14.9333 49.7333 12.6C49.8 7.93333 53.7333 3.53333 55.0667 2.2C56.4 3.53333 60.3333 7.86667 60.4 12.6C60.4 14.9333 59.4 17.0667 57.4667 18.9333L56.1333 20.1333V11.7333C56.1333 11.1333 55.6667 10.6667 55.0667 10.6667C54.4667 10.6667 54 11.1333 54 11.7333V20.0667L52.7333 18.9333ZM75.7333 46.2667C75.2 57.2 66.1333 65.9333 55.0667 65.9333C44 65.9333 34.9333 57.2 34.4 46.2667H75.7333ZM73.2667 30.9333C71.6 30.9333 70.0667 30.2 68.7333 28.8L68.2 28.2667H73.8667C74.4667 28.2667 74.9333 27.8 74.9333 27.2C74.9333 26.6 74.4667 26.1333 73.8667 26.1333H68.2L68.6667 25.6C70.1333 24.2 71.6 23.4667 73.2667 23.4667C76.5333 23.4667 79.6 26.0667 80.7333 27.2C79.6 28.3333 76.5333 30.9333 73.2667 30.9333Z" fill="white"/>
</g>
<path d="M7.33834 59.3344C7.21808 59.1329 7.1863 58.9235 7.24299 58.7064C7.29969 58.4892 7.42975 58.3221 7.63317 58.2051L17.0227 52.8044C17.2354 52.682 17.4475 52.6524 17.6589 52.7153C17.8796 52.7729 18.0501 52.9025 18.1703 53.104C18.3343 53.3788 18.3306 53.6639 18.1592 53.9593L12.0296 63.2616L11.7672 62.8219L22.9642 62.0105C23.3106 62.0081 23.5658 62.1443 23.7298 62.4191C23.85 62.6206 23.8818 62.83 23.8251 63.0471C23.7777 63.259 23.6476 63.4261 23.4349 63.5484L14.0454 68.9491C13.8419 69.0662 13.6272 69.0913 13.401 69.0245C13.1803 68.9669 13.0126 68.8419 12.8978 68.6495C12.7775 68.448 12.7457 68.2387 12.8024 68.0215C12.8591 67.8044 12.9892 67.6373 13.1926 67.5203L20.585 63.2683L20.8183 63.5032L11.2637 64.1635C10.9304 64.1461 10.6872 64.0091 10.5341 63.7526C10.3537 63.4504 10.3659 63.1481 10.5705 62.8459L15.645 55.1471L15.8783 55.382L8.48594 59.634C8.28252 59.751 8.07047 59.7807 7.84978 59.7231C7.62908 59.6655 7.45861 59.5359 7.33834 59.3344Z" fill="white"/>
<path d="M18.542 75.0045C18.3687 74.8463 18.2756 74.6604 18.2628 74.4468C18.2654 74.2328 18.3495 74.0426 18.5151 73.8764L23.5397 68.8319C23.7129 68.658 23.9073 68.5686 24.123 68.5634C24.3466 68.5654 24.5451 68.6455 24.7184 68.8037C24.8997 68.969 24.9928 69.1549 24.9977 69.3614C25.0026 69.5678 24.9185 69.758 24.7454 69.9318L19.7207 74.9763C19.5551 75.1426 19.3607 75.2321 19.1375 75.2448C18.9218 75.2499 18.7233 75.1698 18.542 75.0045ZM25.7234 67.7948C25.5106 67.6007 25.3969 67.3599 25.3824 67.0726C25.3832 66.7848 25.4852 66.5389 25.6885 66.3349C25.8917 66.1308 26.1397 66.0253 26.4324 66.0183C26.7406 66.011 27.0011 66.1043 27.2138 66.2984C27.4266 66.4925 27.5325 66.7335 27.5317 67.0212C27.5463 67.3086 27.452 67.5543 27.2487 67.7583C27.0455 67.9624 26.7898 68.0681 26.4816 68.0754C26.1889 68.0824 25.9361 67.9889 25.7234 67.7948Z" fill="white"/>
<path d="M26.968 81.6682C26.2323 81.2358 25.6812 80.6896 25.3146 80.0295C24.9631 79.3659 24.805 78.6615 24.8404 77.9164C24.8909 77.1679 25.1496 76.4429 25.6165 75.7414C26.0952 75.0221 26.6817 74.4774 27.3759 74.1071C28.0701 73.7369 28.8012 73.5612 29.569 73.58C30.3427 73.59 31.0929 73.8085 31.8194 74.2354C32.362 74.5543 32.7906 74.9482 33.1053 75.4173C33.4259 75.8774 33.6325 76.4127 33.7252 77.023C33.7594 77.2408 33.7078 77.4143 33.5706 77.5436C33.4333 77.673 33.2435 77.7467 33.0011 77.7649C32.8133 77.778 32.6501 77.7253 32.5115 77.6068C32.3788 77.4794 32.2894 77.3157 32.2434 77.1158C32.1001 76.3892 31.6928 75.8287 31.0215 75.4342C30.5525 75.1586 30.0677 75.0219 29.5672 75.0243C29.0726 75.0177 28.6 75.1415 28.1495 75.3955C27.6989 75.6496 27.3052 76.0297 26.9683 76.5358C26.6492 77.0153 26.4666 77.501 26.4207 77.9928C26.384 78.49 26.4757 78.9577 26.6958 79.3959C26.9218 79.8252 27.2785 80.183 27.7659 80.4694C28.0878 80.6586 28.3919 80.7879 28.6783 80.8574C28.9798 80.9234 29.2849 80.9359 29.5936 80.895C29.8176 80.866 30.0107 80.893 30.1729 80.976C30.3411 81.0501 30.4524 81.1711 30.507 81.3391C30.5806 81.5553 30.5734 81.7487 30.4854 81.9193C30.4033 82.0811 30.2565 82.1863 30.045 82.2349C28.9869 82.4408 27.9612 82.2518 26.968 81.6682Z" fill="white"/>
<path d="M37.4166 80.8467C37.6431 80.2481 37.9926 79.7605 38.4653 79.3839C38.9519 79.0004 39.5025 78.7486 40.1173 78.6283C40.732 78.508 41.3448 78.5433 41.9557 78.7342C42.5665 78.9251 42.9819 79.1665 43.2016 79.4583C43.4353 79.7433 43.4656 80.0093 43.2925 80.2564C43.2091 80.3865 43.1065 80.4772 42.9846 80.5284C42.8768 80.5728 42.7631 80.5874 42.6435 80.5724C42.524 80.5574 42.4037 80.5142 42.2827 80.4429C41.6801 80.1096 41.0985 79.9167 40.5377 79.8642C39.977 79.8116 39.4873 79.8873 39.0686 80.0912C38.6601 80.2982 38.3691 80.6312 38.1955 81.0901L37.4166 80.8467ZM35.4957 85.9695C35.2514 85.8931 35.0857 85.7744 34.9986 85.6133C34.9153 85.4423 34.9209 85.2321 35.0152 84.9826L37.5458 78.2933C37.6364 78.0539 37.7724 77.89 37.9538 77.8016C38.1352 77.7133 38.3481 77.7073 38.5925 77.7837C38.847 77.8632 39.0108 77.9869 39.0839 78.1548C39.171 78.3159 39.1673 78.5211 39.073 78.7705L36.5424 85.4599C36.4518 85.6993 36.3158 85.8632 36.1344 85.9515C35.9632 86.043 35.7503 86.049 35.4957 85.9695Z" fill="white"/>
<path d="M49.1427 88.2244C48.2805 88.1679 47.5407 87.9326 46.9233 87.5185C46.3071 87.0938 45.845 86.5404 45.537 85.8582C45.241 85.1662 45.1421 84.391 45.2404 83.5326C45.3399 82.6636 45.6136 81.9128 46.0613 81.2802C46.521 80.6376 47.102 80.1525 47.8044 79.8248C48.508 79.4865 49.2909 79.3456 50.153 79.402C51.0045 79.4578 51.7384 79.698 52.3546 80.1227C52.9721 80.5369 53.4288 81.0899 53.7249 81.782C54.0329 82.4641 54.1371 83.2396 54.0375 84.1086C53.9392 84.967 53.6656 85.7178 53.2166 86.3611C52.7688 86.9937 52.1931 87.4792 51.4895 87.8175C50.7871 88.1452 50.0048 88.2808 49.1427 88.2244ZM49.3065 86.7937C49.86 86.83 50.3642 86.7348 50.8191 86.5084C51.2739 86.2819 51.644 85.9538 51.9291 85.5241C52.2249 85.095 52.4061 84.589 52.4729 84.0062C52.5396 83.4233 52.4761 82.9013 52.2823 82.4402C52.1003 81.9692 51.811 81.5926 51.4144 81.3104C51.0177 81.0282 50.5427 80.8689 49.9892 80.8327C49.4357 80.7964 48.9315 80.8916 48.4766 81.118C48.0218 81.3445 47.6458 81.6775 47.3488 82.1172C47.053 82.5463 46.8718 83.0522 46.805 83.6351C46.7383 84.2179 46.8018 84.7399 46.9957 85.201C47.1895 85.6622 47.4847 86.0338 47.8814 86.316C48.278 86.5983 48.753 86.7575 49.3065 86.7937Z" fill="white"/>
<path d="M59.7007 88.4331C59.4708 88.4802 59.2633 88.4412 59.078 88.3159C58.8928 88.1906 58.7792 88.0125 58.7374 87.7816L56.8071 77.123C56.7634 76.8816 56.8066 76.6713 56.9368 76.4922C57.065 76.3026 57.244 76.1843 57.4739 76.1371L64.5583 74.6835C64.7986 74.6342 65.0053 74.668 65.1781 74.7849C65.3491 74.8913 65.4556 75.06 65.4974 75.2909C65.5373 75.5113 65.4965 75.7048 65.3749 75.8712C65.2533 76.0377 65.0724 76.1456 64.832 76.1949L58.5626 77.4813L59.2555 81.307L63.7538 80.3841C63.9941 80.3348 64.2007 80.3686 64.3736 80.4855C64.5446 80.5919 64.6501 80.7553 64.69 80.9758C64.7299 81.1962 64.69 81.3949 64.5703 81.5718C64.4488 81.7383 64.2678 81.8462 64.0275 81.8955L59.5292 82.8185L60.3675 87.4472C60.4093 87.6781 60.3661 87.8883 60.2378 88.0779C60.1096 88.2675 59.9306 88.3859 59.7007 88.4331Z" fill="white"/>
<path d="M77.3947 83.2891C76.6218 83.6752 75.8546 83.8498 75.0932 83.8129C74.3269 83.7664 73.6216 83.5345 72.9773 83.1171C72.3377 82.6855 71.8214 82.085 71.4284 81.3155C71.0306 80.5365 70.8483 79.7692 70.8815 79.0134C70.9193 78.2433 71.1492 77.5442 71.571 76.9162C71.988 76.2787 72.5829 75.7669 73.3559 75.3808C74.1192 74.9994 74.8841 74.832 75.6503 74.8784C76.4118 74.9154 77.1123 75.1496 77.7519 75.5813C78.3962 75.9986 78.9173 76.5968 79.3151 77.3758C79.7081 78.1452 79.8904 78.9126 79.8621 79.6779C79.8289 80.4337 79.6038 81.1304 79.1868 81.7679C78.765 82.3959 78.1676 82.903 77.3947 83.2891ZM76.7398 82.0067C77.236 81.7588 77.6167 81.4255 77.8819 81.0069C78.1472 80.5882 78.2829 80.127 78.2891 79.6231C78.3048 79.1145 78.1792 78.599 77.9124 78.0765C77.6456 77.554 77.3005 77.1481 76.8773 76.8588C76.4588 76.5551 76.0004 76.3847 75.5023 76.3474C75.0042 76.31 74.507 76.4153 74.0108 76.6632C73.5146 76.9111 73.1339 77.2443 72.8686 77.663C72.6034 78.0817 72.4653 78.55 72.4544 79.0682C72.4387 79.5768 72.5643 80.0923 72.8311 80.6148C73.098 81.1373 73.443 81.5432 73.8662 81.8325C74.2895 82.1219 74.7501 82.2852 75.2483 82.3225C75.7464 82.3598 76.2436 82.2545 76.7398 82.0067Z" fill="white"/>
<path d="M89.4407 75.3964C88.7946 75.9701 88.0951 76.3417 87.3422 76.5113C86.5818 76.6732 85.8292 76.643 85.0843 76.4206C84.34 76.1835 83.6689 75.7531 83.0709 75.1295C82.4655 74.4982 82.0735 73.82 81.8949 73.0948C81.7169 72.3548 81.746 71.6306 81.9822 70.922C82.2109 70.2058 82.6483 69.5609 83.2944 68.9873C83.9326 68.4207 84.6318 68.0565 85.3921 67.8945C86.1451 67.7249 86.8937 67.7587 87.638 67.9958C88.3829 68.2182 89.058 68.645 89.6634 69.2763C90.2615 69.8999 90.6534 70.5782 90.8394 71.3111C91.018 72.0362 90.9929 72.757 90.7641 73.4732C90.528 74.1817 90.0868 74.8228 89.4407 75.3964ZM88.444 74.3571C88.8588 73.9888 89.1371 73.5707 89.279 73.1026C89.4209 72.6346 89.4245 72.161 89.2899 71.6819C89.1633 71.1956 88.897 70.7408 88.4909 70.3174C88.0848 69.8939 87.635 69.602 87.1415 69.4415C86.6485 69.2663 86.1539 69.2279 85.6577 69.3264C85.1614 69.4249 84.7059 69.6583 84.2911 70.0266C83.8764 70.3948 83.598 70.813 83.4562 71.281C83.3143 71.7491 83.3104 72.2301 83.4444 72.724C83.571 73.2102 83.8373 73.665 84.2434 74.0885C84.6495 74.5119 85.0993 74.8038 85.5928 74.9643C86.0864 75.1248 86.5812 75.1558 87.0775 75.0572C87.5738 74.9587 88.0293 74.7254 88.444 74.3571Z" fill="white"/>
<path d="M99.841 64.9112C99.3985 65.6158 98.8304 66.1599 98.1367 66.5435C97.4393 66.913 96.6914 67.1026 95.893 67.1124C95.1003 67.1131 94.335 66.91 93.5971 66.5031C92.8591 66.0963 92.2942 65.5841 91.9023 64.9667C91.5067 64.3352 91.3053 63.6647 91.2981 62.9554C91.2815 62.241 91.4803 61.5541 91.8945 60.8947C92.2292 60.3617 92.6552 59.9338 93.1724 59.611C93.6803 59.2829 94.2268 59.0735 94.812 58.9827L91.0289 56.8969C90.8141 56.7784 90.681 56.6199 90.6297 56.4213C90.584 56.2137 90.6236 56.0106 90.7484 55.8119C90.8789 55.6041 91.0492 55.4731 91.2594 55.4187C91.4696 55.3644 91.6821 55.3964 91.897 55.5149L98.2862 59.0376C99.0241 59.4445 99.5824 59.9773 99.9609 60.6359C100.345 61.2856 100.534 61.9857 100.528 62.7363C100.513 63.4817 100.284 64.2067 99.841 64.9112ZM98.58 64.216C98.8694 63.7553 99.0154 63.2825 99.0182 62.7976C99.0116 62.3075 98.8727 61.8479 98.6015 61.4187C98.3304 60.9895 97.9472 60.6384 97.4522 60.3654C96.9478 60.0873 96.4342 59.944 95.9113 59.9354C95.3885 59.9269 94.9016 60.0414 94.4505 60.2791C93.99 60.5117 93.6151 60.8583 93.3257 61.319C93.0421 61.7706 92.9007 62.246 92.9016 62.7451C92.8988 63.23 93.0255 63.689 93.2817 64.1221C93.5435 64.5461 93.9266 64.8972 94.4311 65.1753C94.9261 65.4483 95.4397 65.5916 95.9719 65.6053C96.5097 65.61 97.0089 65.4961 97.4693 65.2635C97.9261 65.0168 98.2963 64.6676 98.58 64.216Z" fill="white"/>
<defs>
<clipPath id="clip0_227_442">
<rect width="68" height="68" fill="white" transform="translate(21)"/>
</clipPath>
</defs>
</svg>
