<svg width="18" height="18" viewBox="0 0 18 18" fill="none" xmlns="http://www.w3.org/2000/svg">
<g clip-path="url(#clip0_116_119)">
<path d="M13.865 17.7201C13.6968 17.7196 13.5292 17.7012 13.365 17.6651C10.2383 17.0183 7.3578 15.5018 5.05499 13.2901C2.80132 11.0735 1.23829 8.2514 0.55499 5.1651C0.474421 4.78046 0.494196 4.38155 0.612412 4.00676C0.730629 3.63197 0.943309 3.29391 1.22999 3.0251L3.22999 1.1001C3.33214 1.0035 3.45352 0.929517 3.5862 0.882993C3.71888 0.836469 3.85987 0.818447 3.99999 0.830102C4.14527 0.845258 4.28547 0.892059 4.41072 0.967211C4.53598 1.04236 4.64325 1.14404 4.72499 1.2651L7.22499 4.9601C7.31874 5.10347 7.364 5.27315 7.3541 5.44417C7.34419 5.61519 7.27966 5.77851 7.16999 5.9101L5.91499 7.4101C6.41482 8.51633 7.12266 9.51614 7.99999 10.3551C8.87164 11.2245 9.90191 11.9187 11.035 12.4001L12.59 11.1651C12.7206 11.0619 12.8795 11.0009 13.0456 10.9901C13.2118 10.9794 13.3772 11.0195 13.52 11.1051L17.295 13.5451C17.4245 13.6225 17.5349 13.7281 17.6178 13.8542C17.7007 13.9802 17.754 14.1234 17.7738 14.273C17.7935 14.4226 17.7791 14.5747 17.7317 14.7179C17.6843 14.8612 17.6051 14.9918 17.5 15.1001L15.55 17.0301C15.3285 17.2505 15.0656 17.425 14.7764 17.5434C14.4872 17.6618 14.1775 17.7219 13.865 17.7201ZM3.91999 1.8201L1.91999 3.7451C1.75872 3.89538 1.63933 4.08504 1.57358 4.29544C1.50783 4.50585 1.49798 4.72974 1.54499 4.9451C2.18035 7.84117 3.64085 10.4913 5.74999 12.5751C7.91709 14.6559 10.6278 16.0823 13.57 16.6901C13.7927 16.7367 14.0235 16.7272 14.2416 16.6627C14.4598 16.5981 14.6585 16.4804 14.82 16.3201L16.77 14.3901L13.125 12.0351L11.455 13.3651C11.3911 13.4157 11.3157 13.4499 11.2355 13.4647C11.1554 13.4795 11.0728 13.4745 10.995 13.4501C9.60834 12.9392 8.35172 12.1282 7.31499 11.0751C6.24267 10.0737 5.4103 8.84311 4.87999 7.4751C4.85755 7.39228 4.85681 7.30509 4.87783 7.2219C4.89884 7.13871 4.94091 7.06233 4.99999 7.0001L6.34999 5.3851L3.91999 1.8201Z" fill="#9C6955"/>
</g>
<defs>
<clipPath id="clip0_116_119">
<rect width="18" height="18" fill="white"/>
</clipPath>
</defs>
</svg>
