<svg width="20" height="20" viewBox="0 0 20 20" fill="none" xmlns="http://www.w3.org/2000/svg">
<g clip-path="url(#clip0_108_12)">
<path d="M9.07223 2.80555C10.2756 2.80445 11.4523 3.16029 12.4535 3.82807C13.4546 4.49585 14.2352 5.44555 14.6965 6.55704C15.1577 7.66852 15.279 8.89185 15.0449 10.0723C14.8108 11.2527 14.2319 12.3372 13.3813 13.1885C12.5308 14.0398 11.4468 14.6197 10.2666 14.8549C9.08643 15.0901 7.86299 14.9699 6.75108 14.5097C5.63917 14.0494 4.68876 13.2697 4.02007 12.2692C3.35138 11.2687 2.99445 10.0923 2.99445 8.88888C3.00175 7.27869 3.64425 5.73644 4.78232 4.59733C5.92039 3.45822 7.46205 2.81431 9.07223 2.80555ZM9.07223 1.66666C7.64381 1.66666 6.24747 2.09023 5.05978 2.88382C3.87209 3.67741 2.9464 4.80537 2.39977 6.12505C1.85314 7.44474 1.71011 8.89689 1.98878 10.2979C2.26745 11.6988 2.9553 12.9857 3.96535 13.9958C4.97539 15.0058 6.26227 15.6937 7.66325 15.9723C9.06422 16.251 10.5164 16.108 11.8361 15.5613C13.1557 15.0147 14.2837 14.089 15.0773 12.9013C15.8709 11.7136 16.2945 10.3173 16.2945 8.88888C16.2945 6.97343 15.5335 5.13643 14.1791 3.782C12.8247 2.42757 10.9877 1.66666 9.07223 1.66666Z" fill="white"/>
<path d="M19.4444 18.4944L15.35 14.3722L14.5611 15.1556L18.6555 19.2778C18.707 19.3296 18.7681 19.3707 18.8355 19.3989C18.9028 19.4271 18.975 19.4417 19.048 19.442C19.121 19.4422 19.1934 19.4281 19.2609 19.4004C19.3284 19.3727 19.3899 19.332 19.4417 19.2806C19.4935 19.2291 19.5346 19.168 19.5628 19.1006C19.591 19.0333 19.6056 18.9611 19.6059 18.8881C19.6061 18.8151 19.592 18.7427 19.5643 18.6752C19.5366 18.6077 19.4959 18.5462 19.4444 18.4944Z" fill="white"/>
</g>
<defs>
<clipPath id="clip0_108_12">
<rect width="20" height="20" fill="white"/>
</clipPath>
</defs>
</svg>
